HIERARCHY
ROOT Hips
{
    OFFSET 0.000000 83.639999 0.000000
    CHANNELS 6 Xposition Yposition Zposition Yrotation Xrotation Zrotation
    JOINT RightUpLeg
    {
        OFFSET -10.500000 -0.000000 0.000000
        CHANNELS 3 Yrotation Xrotation Zrotation
        JOINT RightLeg
        {
            OFFSET 0.000000 -39.400002 0.000000
            CHANNELS 3 Yrotation Xrotation Zrotation
            JOINT RightFoot
            {
                OFFSET 0.000000 -37.320000 0.000000
                CHANNELS 3 Yrotation Xrotation Zrotation
                End Site
                {
                    OFFSET 0.000000 -6.920000 12.600000
                }
            }
        }
    }
    JOINT LeftUpLeg
    {
        OFFSET 10.500000 -0.000000 0.000000
        CHANNELS 3 Yrotation Xrotation Zrotation
        JOINT LeftLeg
        {
            OFFSET 0.000000 -39.400002 0.000000
            CHANNELS 3 Yrotation Xrotation Zrotation
            JOINT LeftFoot
            {
                OFFSET 0.000000 -37.320000 0.000000
                CHANNELS 3 Yrotation Xrotation Zrotation
                End Site
                {
                    OFFSET 0.000000 -6.920000 12.600000
                }
            }
        }
    }
    JOINT Spine
    {
        OFFSET 0.000000 7.549000 0.000000
        CHANNELS 3 Yrotation Xrotation Zrotation
        JOINT Spine1
        {
            OFFSET 0.000000 16.715000 0.000000
            CHANNELS 3 Yrotation Xrotation Zrotation
            JOINT Spine2
            {
                OFFSET 0.000000 11.862000 0.000000
                CHANNELS 3 Yrotation Xrotation Zrotation
                JOINT Neck
                {
                    OFFSET 0.000000 17.794001 0.000000
                    CHANNELS 3 Yrotation Xrotation Zrotation
                    JOINT Neck1
                    {
                        OFFSET 0.000000 4.145000 0.000000
                        CHANNELS 3 Yrotation Xrotation Zrotation
                        JOINT Head
                        {
                            OFFSET 0.000000 4.145000 0.000000
                            CHANNELS 3 Yrotation Xrotation Zrotation
                            End Site
                            {
                                OFFSET 0.000000 16.070000 0.000000
                            }
                        }
                    }
                }
                JOINT RightShoulder
                {
                    OFFSET -2.696000 12.402000 0.000000
                    CHANNELS 3 Yrotation Xrotation Zrotation
                    JOINT RightArm
                    {
                        OFFSET -12.804000 0.000000 0.000000
                        CHANNELS 3 Yrotation Xrotation Zrotation
                        JOINT RightForeArm
                        {
                            OFFSET -21.000000 0.000000 0.000000
                            CHANNELS 3 Yrotation Xrotation Zrotation
                            JOINT RightHand
                            {
                                OFFSET -23.000000 0.000000 0.000000
                                CHANNELS 3 Yrotation Xrotation Zrotation
                                JOINT RightHandThumb1
                                {
                                    OFFSET -1.737000 -0.434000 2.258000
                                    CHANNELS 3 Yrotation Xrotation Zrotation
                                    JOINT RightHandThumb2
                                    {
                                        OFFSET -3.472000 0.000000 0.000000
                                        CHANNELS 3 Yrotation Xrotation Zrotation
                                        JOINT RightHandThumb3
                                        {
                                            OFFSET -2.412000 0.000000 0.000000
                                            CHANNELS 3 Yrotation Xrotation Zrotation
                                            End Site
                                            {
                                                OFFSET -2.275000 0.000000 0.000000
                                            }
                                        }
                                    }
                                }
                                JOINT RightInHandIndex
                                {
                                    OFFSET -3.039000 0.479000 1.865000
                                    CHANNELS 3 Yrotation Xrotation Zrotation
                                    JOINT RightHandIndex1
                                    {
                                        OFFSET -4.919000 -0.086000 0.942000
                                        CHANNELS 3 Yrotation Xrotation Zrotation
                                        JOINT RightHandIndex2
                                        {
                                            OFFSET -3.413000 0.000000 0.000000
                                            CHANNELS 3 Yrotation Xrotation Zrotation
                                            JOINT RightHandIndex3
                                            {
                                                OFFSET -1.935000 0.000000 0.000000
                                                CHANNELS 3 Yrotation Xrotation Zrotation
                                                End Site
                                                {
                                                    OFFSET -1.702000 0.000000 0.000000
                                                }
                                            }
                                        }
                                    }
                                }
                                JOINT RightInHandMiddle
                                {
                                    OFFSET -3.189000 0.488000 0.714000
                                    CHANNELS 3 Yrotation Xrotation Zrotation
                                    JOINT RightHandMiddle1
                                    {
                                        OFFSET -4.879000 -0.079000 0.296000
                                        CHANNELS 3 Yrotation Xrotation Zrotation
                                        JOINT RightHandMiddle2
                                        {
                                            OFFSET -3.724000 0.000000 0.000000
                                            CHANNELS 3 Yrotation Xrotation Zrotation
                                            JOINT RightHandMiddle3
                                            {
                                                OFFSET -2.334000 0.000000 0.000000
                                                CHANNELS 3 Yrotation Xrotation Zrotation
                                                End Site
                                                {
                                                    OFFSET -1.862000 0.000000 0.000000
                                                }
                                            }
                                        }
                                    }
                                }
                                JOINT RightInHandRing
                                {
                                    OFFSET -3.173000 0.507000 -0.122000
                                    CHANNELS 3 Yrotation Xrotation Zrotation
                                    JOINT RightHandRing1
                                    {
                                        OFFSET -4.370000 -0.021000 -0.452000
                                        CHANNELS 3 Yrotation Xrotation Zrotation
                                        JOINT RightHandRing2
                                        {
                                            OFFSET -3.245000 0.000000 0.000000
                                            CHANNELS 3 Yrotation Xrotation Zrotation
                                            JOINT RightHandRing3
                                            {
                                                OFFSET -2.252000 0.000000 0.000000
                                                CHANNELS 3 Yrotation Xrotation Zrotation
                                                End Site
                                                {
                                                    OFFSET -1.751000 0.000000 0.000000
                                                }
                                            }
                                        }
                                    }
                                }
                                JOINT RightInHandPinky
                                {
                                    OFFSET -2.980000 0.443000 -1.133000
                                    CHANNELS 3 Yrotation Xrotation Zrotation
                                    JOINT RightHandPinky1
                                    {
                                        OFFSET -3.904000 -0.021000 -1.028000
                                        CHANNELS 3 Yrotation Xrotation Zrotation
                                        JOINT RightHandPinky2
                                        {
                                            OFFSET -2.599000 0.000000 0.000000
                                            CHANNELS 3 Yrotation Xrotation Zrotation
                                            JOINT RightHandPinky3
                                            {
                                                OFFSET -1.642000 0.000000 0.000000
                                                CHANNELS 3 Yrotation Xrotation Zrotation
                                                End Site
                                                {
                                                    OFFSET -1.551000 0.000000 0.000000
                                                }
                                            }
                                        }
                                    }
                                }
                            }
                        }
                    }
                }
                JOINT LeftShoulder
                {
                    OFFSET 2.696000 12.402000 0.000000
                    CHANNELS 3 Yrotation Xrotation Zrotation
                    JOINT LeftArm
                    {
                        OFFSET 12.804000 0.000000 0.000000
                        CHANNELS 3 Yrotation Xrotation Zrotation
                        JOINT LeftForeArm
                        {
                            OFFSET 21.000000 0.000000 0.000000
                            CHANNELS 3 Yrotation Xrotation Zrotation
                            JOINT LeftHand
                            {
                                OFFSET 23.000000 0.000000 0.000000
                                CHANNELS 3 Yrotation Xrotation Zrotation
                                JOINT LeftHandThumb1
                                {
                                    OFFSET 1.737000 -0.434000 2.258000
                                    CHANNELS 3 Yrotation Xrotation Zrotation
                                    JOINT LeftHandThumb2
                                    {
                                        OFFSET 3.472000 0.000000 0.000000
                                        CHANNELS 3 Yrotation Xrotation Zrotation
                                        JOINT LeftHandThumb3
                                        {
                                            OFFSET 2.412000 0.000000 0.000000
                                            CHANNELS 3 Yrotation Xrotation Zrotation
                                            End Site
                                            {
                                                OFFSET 2.275000 0.000000 0.000000
                                            }
                                        }
                                    }
                                }
                                JOINT LeftInHandIndex
                                {
                                    OFFSET 3.039000 0.479000 1.865000
                                    CHANNELS 3 Yrotation Xrotation Zrotation
                                    JOINT LeftHandIndex1
                                    {
                                        OFFSET 4.919000 -0.086000 0.942000
                                        CHANNELS 3 Yrotation Xrotation Zrotation
                                        JOINT LeftHandIndex2
                                        {
                                            OFFSET 3.413000 0.000000 0.000000
                                            CHANNELS 3 Yrotation Xrotation Zrotation
                                            JOINT LeftHandIndex3
                                            {
                                                OFFSET 1.935000 0.000000 0.000000
                                                CHANNELS 3 Yrotation Xrotation Zrotation
                                                End Site
                                                {
                                                    OFFSET 1.702000 0.000000 0.000000
                                                }
                                            }
                                        }
                                    }
                                }
                                JOINT LeftInHandMiddle
                                {
                                    OFFSET 3.189000 0.488000 0.714000
                                    CHANNELS 3 Yrotation Xrotation Zrotation
                                    JOINT LeftHandMiddle1
                                    {
                                        OFFSET 4.879000 -0.079000 0.296000
                                        CHANNELS 3 Yrotation Xrotation Zrotation
                                        JOINT LeftHandMiddle2
                                        {
                                            OFFSET 3.724000 0.000000 0.000000
                                            CHANNELS 3 Yrotation Xrotation Zrotation
                                            JOINT LeftHandMiddle3
                                            {
                                                OFFSET 2.334000 0.000000 0.000000
                                                CHANNELS 3 Yrotation Xrotation Zrotation
                                                End Site
                                                {
                                                    OFFSET 1.862000 0.000000 0.000000
                                                }
                                            }
                                        }
                                    }
                                }
                                JOINT LeftInHandRing
                                {
                                    OFFSET 3.173000 0.507000 -0.122000
                                    CHANNELS 3 Yrotation Xrotation Zrotation
                                    JOINT LeftHandRing1
                                    {
                                        OFFSET 4.370000 -0.021000 -0.452000
                                        CHANNELS 3 Yrotation Xrotation Zrotation
                                        JOINT LeftHandRing2
                                        {
                                            OFFSET 3.245000 0.000000 0.000000
                                            CHANNELS 3 Yrotation Xrotation Zrotation
                                            JOINT LeftHandRing3
                                            {
                                                OFFSET 2.252000 0.000000 0.000000
                                                CHANNELS 3 Yrotation Xrotation Zrotation
                                                End Site
                                                {
                                                    OFFSET 1.751000 0.000000 0.000000
                                                }
                                            }
                                        }
                                    }
                                }
                                JOINT LeftInHandPinky
                                {
                                    OFFSET 2.980000 0.443000 -1.133000
                                    CHANNELS 3 Yrotation Xrotation Zrotation
                                    JOINT LeftHandPinky1
                                    {
                                        OFFSET 3.904000 -0.021000 -1.028000
                                        CHANNELS 3 Yrotation Xrotation Zrotation
                                        JOINT LeftHandPinky2
                                        {
                                            OFFSET 2.599000 0.000000 0.000000
                                            CHANNELS 3 Yrotation Xrotation Zrotation
                                            JOINT LeftHandPinky3
                                            {
                                                OFFSET 1.642000 0.000000 0.000000
                                                CHANNELS 3 Yrotation Xrotation Zrotation
                                                End Site
                                                {
                                                    OFFSET 1.551000 0.000000 0.000000
                                                }
                                            }
                                        }
                                    }
                                }
                            }
                        }
                    }
                }
            }
        }
    }
}
MOTION
Frames: 4
Frame Time: 0.016667
242.260498 93.045547 -181.222504 33.292007 -172.611496 179.309387 161.827377 -171.364166 -169.604095 171.593979 145.709137 -177.556839 144.756348 165.142181 -176.078949 12.351695 -12.935608 -21.011192 72.351837 1.423277 14.023599 140.243393 176.470596 175.648666 176.252396 179.634583 179.217819 176.250412 179.664856 178.776505 162.521332 -179.558777 178.492706 179.987457 -178.204132 170.769287 0.003128 -2.102324 -9.582876 151.968567 -176.280029 175.647232 149.548203 179.740570 -178.901382 24.029541 10.239296 58.973541 140.768661 -6.184465 42.220150 1.216557 15.363580 -4.406292 43.477409 -0.000024 12.839273 176.995316 179.999985 -160.741119 0.755723 0.000000 -0.000003 180.000000 -180.000000 180.000000 15.000049 -0.000005 22.983458 180.000000 -179.999985 -161.195358 0.000001 0.000007 13.163306 180.000000 -180.000000 -180.000000 0.000010 0.000003 28.287096 0.000001 -0.000009 34.104549 180.000000 -180.000000 -157.286423 180.000000 -180.000000 180.000000 170.000015 -179.999985 -152.110260 179.999985 180.000000 -148.689804 0.000008 0.000006 20.852537 180.000000 -180.000000 180.000000 160.000061 -179.999985 -155.133041 180.000000 179.999985 -142.699570 180.000000 -179.999985 -155.157928 8.873812 -1.798128 1.186427 100.856834 -173.593674 141.554672 40.282326 172.203369 178.390930 23.702141 -25.900354 -16.464476 136.522598 -179.999985 167.160721 3.004681 0.000008 -19.258894 0.755723 0.000000 -0.000003 0.000005 -0.000002 0.000002 164.999954 -179.999985 157.016541 0.000002 -0.000003 -18.804642 180.000000 179.999985 166.836685 0.000005 -0.000002 0.000002 179.999985 179.999985 151.712906 180.000000 -179.999985 145.895447 0.000000 -0.000002 -22.713579 0.000005 -0.000002 0.000002 9.999979 -0.000006 -27.889727 0.000007 0.000000 -31.310192 179.999985 179.999985 159.147461 0.000005 -0.000002 0.000002 19.999945 -0.000026 -24.866964 0.000004 0.000009 -37.300442 0.000001 -0.000004 -24.842075
242.623856 92.496040 -180.304626 45.090668 -174.094635 178.186569 164.349167 -171.959518 -170.476074 175.344101 146.694229 -175.418015 143.079254 166.479202 -177.455109 14.840432 -14.626455 -20.848776 73.338409 3.683205 15.167811 140.161865 176.216400 177.212082 176.313705 179.274536 179.255890 176.312057 179.308533 178.843185 162.829620 -179.843887 178.464493 179.976639 -179.036240 171.194595 179.996292 -178.861862 170.859421 148.329239 -176.655487 175.815872 147.294067 178.096848 -178.230225 23.828548 9.826302 58.283321 142.555664 -3.517071 42.167473 1.565605 13.449450 -3.041482 43.477409 -0.000024 12.839273 176.995316 179.999985 -160.741119 0.755723 0.000000 -0.000003 180.000000 -180.000000 180.000000 15.000049 -0.000005 22.983458 180.000000 -179.999985 -161.195358 0.000001 0.000007 13.163306 180.000000 -180.000000 -180.000000 0.000010 0.000003 28.287096 0.000001 -0.000009 34.104549 180.000000 -180.000000 -157.286423 180.000000 -180.000000 180.000000 170.000015 -179.999985 -152.110260 179.999985 180.000000 -148.689804 0.000008 0.000006 20.852537 180.000000 -180.000000 180.000000 160.000061 -179.999985 -155.133041 180.000000 179.999985 -142.699570 180.000000 -179.999985 -155.157928 7.650740 -3.380054 -0.147152 100.390518 -176.012711 139.204926 42.557652 172.822281 177.282257 22.565920 -25.591803 -14.680858 136.522598 -179.999985 167.160721 3.004681 0.000008 -19.258894 0.755723 0.000000 -0.000003 0.000005 -0.000002 0.000002 164.999954 -179.999985 157.016541 0.000002 -0.000003 -18.804642 180.000000 179.999985 166.836685 0.000005 -0.000002 0.000002 179.999985 179.999985 151.712906 180.000000 -179.999985 145.895447 0.000000 -0.000002 -22.713579 0.000005 -0.000002 0.000002 9.999979 -0.000006 -27.889727 0.000007 0.000000 -31.310192 179.999985 179.999985 159.147461 0.000005 -0.000002 0.000002 19.999945 -0.000026 -24.866964 0.000004 0.000009 -37.300442 0.000001 -0.000004 -24.842075
242.912460 91.665649 -179.468628 57.009007 -175.679184 177.352737 166.395645 -172.526642 -171.744385 177.633987 148.051544 -173.095840 141.630798 167.364502 -178.815598 15.464566 -16.536001 -21.221376 73.561722 5.809690 16.685974 141.055038 176.346268 178.635757 176.159424 179.070038 179.317368 176.158768 179.106689 178.936630 162.121582 -179.996567 178.494064 179.978943 -179.658539 171.859421 179.998383 -179.584930 171.551407 146.933868 -177.149719 175.987366 147.831970 176.215408 -177.703079 21.248220 9.089055 57.739586 144.774704 -1.887920 43.837513 2.153626 11.461932 -1.726027 43.477409 -0.000024 12.839273 176.995316 179.999985 -160.741119 0.755723 0.000000 -0.000003 180.000000 -180.000000 180.000000 15.000049 -0.000005 22.983458 180.000000 -179.999985 -161.195358 0.000001 0.000007 13.163306 180.000000 -180.000000 -180.000000 0.000010 0.000003 28.287096 0.000001 -0.000009 34.104549 180.000000 -180.000000 -157.286423 180.000000 -180.000000 180.000000 170.000015 -179.999985 -152.110260 179.999985 180.000000 -148.689804 0.000008 0.000006 20.852537 180.000000 -180.000000 180.000000 160.000061 -179.999985 -155.133041 180.000000 179.999985 -142.699570 180.000000 -179.999985 -155.157928 6.772582 -4.637701 -1.297443 99.814140 -178.687180 137.519379 44.704502 172.385101 176.956757 23.197794 -25.858416 -12.627596 136.522598 -179.999985 167.160721 3.004681 0.000008 -19.258894 0.755723 0.000000 -0.000003 0.000005 -0.000002 0.000002 164.999954 -179.999985 157.016541 0.000002 -0.000003 -18.804642 180.000000 179.999985 166.836685 0.000005 -0.000002 0.000002 179.999985 179.999985 151.712906 180.000000 -179.999985 145.895447 0.000000 -0.000002 -22.713579 0.000005 -0.000002 0.000002 9.999979 -0.000006 -27.889727 0.000007 0.000000 -31.310192 179.999985 179.999985 159.147461 0.000005 -0.000002 0.000002 19.999945 -0.000026 -24.866964 0.000004 0.000009 -37.300442 0.000001 -0.000004 -24.842075
243.067795 90.535461 -178.714661 70.183563 -177.540817 176.789185 167.405594 -173.021637 -172.876129 179.208221 149.755524 -170.633804 140.531372 167.927994 -179.965912 14.119620 -19.054783 -21.892521 73.574120 7.947778 18.364708 143.214172 176.768539 179.951691 175.836929 179.107056 179.429306 175.836868 179.147308 179.074646 160.597534 -179.981873 178.658737 179.985931 179.623367 172.501541 0.004020 0.419897 -7.788759 144.212311 -177.680756 176.123566 147.328552 174.625000 -177.375198 19.667721 9.076809 57.172531 146.282394 0.058432 44.532509 4.268631 9.428214 1.104158 43.477409 -0.000024 12.839273 176.995316 179.999985 -160.741119 0.755723 0.000000 -0.000003 180.000000 -180.000000 180.000000 15.000049 -0.000005 22.983458 180.000000 -179.999985 -161.195358 0.000001 0.000007 13.163306 180.000000 -180.000000 -180.000000 0.000010 0.000003 28.287096 0.000001 -0.000009 34.104549 180.000000 -180.000000 -157.286423 180.000000 -180.000000 180.000000 170.000015 -179.999985 -152.110260 179.999985 180.000000 -148.689804 0.000008 0.000006 20.852537 180.000000 -180.000000 180.000000 160.000061 -179.999985 -155.133041 180.000000 179.999985 -142.699570 180.000000 -179.999985 -155.157928 6.111022 -5.575640 -2.317322 99.562416 179.281586 136.181717 46.836559 172.108444 176.646378 22.063913 -26.450476 -11.704206 136.522598 -179.999985 167.160721 3.004681 0.000008 -19.258894 0.755723 0.000000 -0.000003 0.000005 -0.000002 0.000002 164.999954 -179.999985 157.016541 0.000002 -0.000003 -18.804642 180.000000 179.999985 166.836685 0.000005 -0.000002 0.000002 179.999985 179.999985 151.712906 180.000000 -179.999985 145.895447 0.000000 -0.000002 -22.713579 0.000005 -0.000002 0.000002 9.999979 -0.000006 -27.889727 0.000007 0.000000 -31.310192 179.999985 179.999985 159.147461 0.000005 -0.000002 0.000002 19.999945 -0.000026 -24.866964 0.000004 0.000009 -37.300442 0.000001 -0.000004 -24.842075
